<?xml version="1.0" encoding="utf-8"?>
<!-- Generator: Adobe Illustrator 16.0.0, SVG Export Plug-In . SVG Version: 6.00 Build 0)  -->
<svg version="1.2" baseProfile="tiny" id="Layer_1" xmlns="http://www.w3.org/2000/svg" xmlns:xlink="http://www.w3.org/1999/xlink"
	 x="0px" y="0px"  viewBox="0 0 3000 3000" xml:space="preserve">
<g>
	<path fill="#E91309" d="M2879.588,1500.008c0,720.155-617.652,1303.944-1379.586,1303.944
		c-761.927,0-1379.59-583.789-1379.59-1303.944c0-720.154,617.663-1303.96,1379.59-1303.96
		C2261.936,196.048,2879.588,779.854,2879.588,1500.008"/>
	<path fill="#F8C310" d="M1880.439,852.483c145.33,0,263.139,593.878,263.139,1326.484h210.568
		c0-788.979-212.123-1428.538-473.707-1428.538c-148.834,0-281.611,192.218-368.455,492.781
		c-86.802-300.563-219.619-492.781-368.449-492.781c-261.587,0-473.724,639.559-473.724,1428.538h210.583
		c0-732.606,117.839-1326.484,263.14-1326.484c145.348,0,263.214,548.198,263.214,1224.49h210.508
		C1617.268,1400.681,1735.1,852.483,1880.439,852.483"/>
</g>
</svg>
